<?xml version="1.0" standalone="no"?>
<!DOCTYPE svg PUBLIC "-//W3C//DTD SVG 20010904//EN"
 "http://www.w3.org/TR/2001/REC-SVG-20010904/DTD/svg10.dtd">
<svg version="1.0" xmlns="http://www.w3.org/2000/svg"
 width="836.000000pt" height="836.000000pt" viewBox="0 0 836.000000 836.000000"
 preserveAspectRatio="xMidYMid meet">
<metadata>
Created by potrace 1.14, written by Peter Selinger 2001-2017
</metadata>
<g transform="translate(0.000000,836.000000) scale(0.100000,-0.100000)"
fill="#000000" stroke="none">
<path d="M3090 8002 c0 -8 -5 -10 -12 -6 -19 12 -48 12 -48 1 0 -5 -7 -4 -15
3 -12 10 -15 10 -15 -1 0 -12 -2 -12 -9 0 -5 7 -11 9 -14 4 -4 -5 -23 -11 -44
-12 -46 -2 -65 -5 -78 -12 -5 -3 -27 -5 -47 -5 -21 1 -38 -2 -38 -5 0 -4 -7
-10 -16 -13 -9 -4 -13 -2 -8 5 4 8 0 7 -15 0 -12 -7 -26 -9 -31 -6 -6 3 -10 1
-10 -6 0 -7 -3 -9 -7 -6 -3 4 -12 2 -20 -4 -7 -7 -13 -7 -13 -2 0 6 -13 6 -35
-1 -19 -6 -35 -14 -35 -18 0 -3 -11 -5 -25 -3 -14 1 -25 -2 -25 -8 0 -6 -3 -8
-6 -4 -3 3 -21 -3 -40 -14 -23 -13 -34 -15 -34 -6 0 8 -3 9 -8 1 -9 -13 -72
-36 -72 -26 0 4 -5 -1 -11 -11 -6 -9 -14 -15 -20 -12 -5 4 -9 1 -9 -4 0 -6 -5
-11 -11 -11 -5 0 -7 6 -4 13 4 6 0 4 -8 -6 -9 -10 -18 -18 -21 -18 -3 1 -7 1
-8 0 -2 0 -14 -3 -28 -5 -14 -3 -26 -9 -28 -14 -2 -6 -10 -10 -18 -10 -8 0
-14 -4 -14 -10 0 -5 -9 -10 -20 -10 -11 0 -20 -4 -20 -10 0 -5 -3 -9 -7 -8
-14 2 -48 -15 -59 -31 -6 -8 -18 -12 -28 -8 -9 4 -15 3 -12 -2 5 -8 -17 -23
-37 -25 -4 -1 -11 -5 -15 -11 -14 -20 -56 -50 -48 -35 5 9 2 8 -7 -2 -8 -10
-17 -15 -20 -11 -4 3 -7 2 -7 -3 0 -5 -20 -20 -44 -34 -25 -13 -43 -27 -41
-30 3 -4 -7 -12 -20 -18 -14 -7 -25 -16 -25 -22 0 -5 -5 -10 -11 -10 -6 0 -20
-10 -31 -22 -11 -13 -16 -16 -12 -8 4 8 -64 -56 -150 -142 -86 -86 -156 -162
-156 -168 0 -6 -17 -28 -37 -49 -21 -20 -39 -43 -41 -51 -2 -8 -8 -17 -13 -18
-5 -2 -7 -8 -3 -13 3 -5 -2 -12 -10 -15 -9 -3 -16 -12 -16 -20 0 -8 -5 -14
-12 -14 -6 0 -8 -3 -5 -7 4 -3 -2 -13 -13 -20 -11 -8 -18 -19 -15 -24 4 -5 1
-9 -6 -9 -7 0 -9 -3 -6 -7 4 -3 0 -15 -10 -25 -9 -10 -13 -18 -9 -18 4 0 -2
-10 -14 -22 -13 -14 -16 -24 -9 -29 6 -3 2 -9 -11 -12 -12 -3 -19 -10 -15 -16
3 -6 1 -11 -4 -11 -6 0 -10 -3 -9 -7 3 -12 -36 -93 -44 -93 -4 0 -5 -7 -2 -15
4 -8 1 -15 -5 -15 -6 0 -10 -3 -10 -7 3 -20 -2 -34 -11 -28 -5 3 -10 3 -11 -2
0 -4 -3 -19 -5 -33 -2 -14 -5 -31 -6 -37 -1 -7 -5 -13 -9 -13 -4 0 -10 -7 -13
-16 -4 -10 -2 -13 7 -8 8 5 7 2 -2 -9 -7 -9 -10 -17 -5 -17 5 0 4 -4 -3 -8 -6
-4 -13 -16 -15 -27 -1 -11 -10 -26 -18 -33 -8 -8 -9 -11 -2 -7 6 3 12 1 12 -4
0 -6 -5 -11 -11 -11 -5 0 -8 -4 -4 -9 3 -5 0 -13 -6 -17 -8 -4 -7 -9 2 -15 11
-7 11 -9 1 -9 -7 0 -10 -4 -7 -10 3 -5 1 -10 -5 -10 -6 0 -9 -4 -5 -10 3 -5
-1 -25 -9 -45 -11 -25 -12 -33 -3 -28 7 4 4 -6 -7 -21 -11 -18 -13 -26 -5 -21
11 6 12 5 2 -6 -7 -7 -13 -25 -13 -39 0 -14 -5 -31 -12 -38 -9 -9 -9 -12 0
-12 10 0 10 -5 1 -21 -9 -17 -8 -23 2 -30 11 -6 10 -9 -3 -14 -9 -4 -14 -13
-11 -21 3 -8 0 -21 -6 -28 -9 -10 -9 -16 -1 -21 8 -5 8 -11 -1 -21 -9 -11 -9
-14 1 -14 9 0 9 -4 -1 -17 -12 -14 -12 -15 -1 -9 11 7 12 4 3 -13 -14 -25 -21
-266 -10 -298 5 -13 4 -23 -3 -25 -7 -3 -5 -10 5 -19 10 -11 12 -20 5 -32 -6
-11 -5 -17 2 -17 8 0 8 -6 0 -20 -8 -14 -8 -20 0 -20 6 0 9 -4 6 -8 -2 -4 -1
-14 4 -22 5 -8 5 -21 -1 -31 -6 -12 -5 -20 1 -24 6 -4 8 -15 5 -26 -4 -10 -2
-19 2 -19 5 0 10 -17 11 -37 4 -54 6 -65 21 -92 8 -14 9 -21 2 -17 -6 4 -11 2
-11 -3 0 -6 5 -11 11 -11 5 0 7 -4 4 -10 -3 -5 0 -10 7 -10 9 0 9 -3 -2 -10
-10 -6 -11 -10 -2 -10 6 0 12 -12 12 -28 0 -15 5 -33 12 -40 7 -7 9 -12 6 -12
-4 0 4 -30 17 -67 13 -36 22 -70 19 -74 -2 -4 4 -12 13 -18 10 -6 14 -11 9
-11 -5 0 -1 -9 9 -20 9 -10 15 -26 12 -35 -4 -8 -2 -15 4 -15 6 0 7 -4 4 -10
-3 -6 -1 -10 4 -10 6 0 11 -9 11 -20 0 -11 5 -20 11 -20 5 0 8 -4 4 -9 -3 -5
0 -13 6 -16 5 -4 8 -13 5 -21 -3 -8 -1 -14 4 -14 6 0 10 -6 10 -13 0 -7 9 -23
19 -34 11 -12 17 -24 14 -27 -4 -3 -1 -6 6 -6 7 0 9 -4 6 -10 -3 -5 -1 -10 5
-10 6 0 8 -4 5 -10 -3 -5 -1 -10 5 -10 6 0 8 -4 5 -10 -3 -5 -2 -10 2 -10 8 0
26 -29 39 -62 3 -10 11 -18 16 -18 5 0 6 -4 3 -10 -3 -5 -1 -10 4 -10 6 0 11
-7 11 -15 0 -8 5 -15 11 -15 5 0 7 -4 4 -10 -3 -5 1 -10 10 -10 9 0 13 -5 10
-10 -3 -6 1 -13 9 -16 9 -3 16 -12 16 -20 0 -7 6 -17 14 -21 8 -4 16 -14 18
-22 2 -7 21 -32 43 -55 21 -22 38 -42 37 -43 -6 -7 -1 -24 6 -20 4 2 15 -4 25
-15 9 -10 15 -18 12 -18 -3 0 16 -22 42 -49 26 -26 50 -47 52 -45 2 1 21 -17
42 -42 21 -25 39 -43 39 -40 0 3 12 -6 28 -20 53 -49 59 -54 65 -54 3 0 19
-11 34 -25 63 -56 72 -63 77 -57 3 3 6 0 6 -7 0 -7 5 -9 10 -6 6 3 10 1 10 -4
0 -6 7 -11 15 -11 9 0 18 -7 21 -15 4 -9 15 -20 26 -26 16 -9 19 -8 12 3 -4 7
10 -2 33 -19 22 -18 46 -33 52 -33 6 0 11 -4 11 -10 0 -5 3 -9 8 -8 4 1 22 -6
40 -15 17 -10 32 -14 32 -10 0 5 4 4 8 -2 10 -15 49 -35 67 -35 8 0 15 -4 15
-10 0 -5 9 -10 20 -10 11 0 20 -4 20 -8 0 -4 9 -8 21 -9 11 -1 27 -7 35 -14
19 -16 47 -69 36 -69 -4 0 -8 -9 -8 -20 0 -11 5 -20 10 -20 5 0 6 -3 3 -7 -4
-3 -1 -13 6 -21 10 -13 9 -15 -3 -8 -9 4 -8 2 2 -7 10 -8 16 -17 13 -20 -3 -4
-2 -5 2 -2 3 3 12 0 20 -6 10 -9 13 -8 13 1 0 10 3 10 15 0 9 -8 15 -8 15 -2
0 6 9 10 20 9 11 -1 20 -5 20 -10 0 -4 5 -5 12 -1 6 4 8 3 4 -4 -3 -6 -2 -13
3 -16 5 -3 7 -15 4 -26 -3 -11 1 -28 8 -37 10 -12 10 -15 1 -9 -9 6 -10 2 -1
-16 6 -13 20 -30 31 -37 16 -10 19 -10 12 1 -5 8 3 6 19 -5 15 -10 27 -13 27
-7 0 6 5 8 10 5 13 -8 85 63 94 93 5 13 12 20 19 16 7 -4 9 -4 5 1 -4 4 1 20
12 35 11 16 20 33 20 40 0 6 4 9 9 6 5 -4 12 0 14 6 4 10 6 10 6 0 1 -10 6
-10 21 -2 15 8 20 8 20 -1 0 -9 3 -9 14 0 11 9 17 8 28 -8 8 -12 17 -20 19
-18 3 1 -7 -10 -23 -24 -15 -14 -28 -31 -28 -38 0 -7 -4 -9 -10 -6 -5 3 -10 0
-10 -9 0 -8 -13 -27 -30 -43 -16 -15 -30 -33 -30 -40 0 -7 -8 -17 -17 -22 -10
-6 -13 -11 -8 -11 6 0 6 -3 0 -8 -13 -9 -55 -68 -55 -77 0 -3 5 -3 12 1 7 4 8
3 4 -4 -4 -7 -14 -12 -22 -12 -8 0 -12 -5 -9 -10 3 -6 2 -10 -4 -10 -6 0 -8
-6 -5 -14 3 -7 -2 -16 -11 -20 -9 -3 -13 -10 -10 -16 3 -5 1 -10 -5 -10 -6 0
-9 -4 -6 -9 3 -5 -1 -11 -9 -15 -8 -3 -12 -12 -9 -21 3 -8 1 -15 -5 -15 -6 0
-11 -7 -11 -15 0 -8 -5 -15 -11 -15 -5 0 -8 -4 -5 -9 3 -5 -1 -14 -9 -21 -8
-7 -12 -16 -9 -22 3 -5 0 -15 -6 -23 -6 -8 -9 -19 -5 -25 3 -5 1 -10 -5 -10
-6 0 -8 -4 -5 -10 3 -5 1 -10 -5 -10 -6 0 -8 -4 -5 -10 3 -5 2 -10 -2 -10 -5
0 -9 -10 -10 -22 -1 -11 -8 -25 -15 -29 -10 -7 -10 -9 2 -9 12 0 13 -2 1 -9
-7 -5 -10 -14 -7 -20 4 -6 3 -11 -3 -11 -5 0 -8 -8 -7 -17 2 -10 -4 -24 -12
-32 -10 -11 -11 -16 -3 -19 8 -3 9 -8 2 -16 -5 -6 -12 -25 -15 -41 -2 -17 -5
-32 -6 -35 -1 -3 -2 -13 -1 -23 1 -9 -4 -17 -11 -17 -9 0 -9 -3 2 -10 9 -6 11
-10 3 -10 -7 0 -10 -7 -7 -15 4 -8 1 -22 -6 -30 -10 -12 -10 -15 0 -15 10 0
10 -3 0 -15 -12 -15 -16 -168 -4 -186 3 -5 0 -9 -7 -9 -7 0 -9 -3 -6 -7 4 -3
2 -12 -4 -20 -7 -8 -8 -13 -1 -13 5 0 9 -13 8 -30 -1 -16 3 -30 8 -30 6 0 4
-5 -4 -10 -13 -9 -13 -10 0 -10 12 0 13 -2 1 -9 -11 -7 -11 -9 0 -14 12 -5 12
-6 0 -6 -11 -1 -11 -4 -1 -16 7 -9 8 -15 2 -15 -6 0 -7 -14 -1 -41 5 -22 7
-44 4 -50 -4 -5 -2 -9 4 -9 5 0 8 -8 6 -17 -1 -10 2 -24 8 -30 6 -9 6 -13 -2
-13 -8 0 -9 -5 -2 -19 6 -10 7 -21 4 -25 -3 -3 -2 -6 3 -6 5 0 10 -8 10 -17 1
-37 13 -85 24 -98 8 -10 8 -14 -1 -17 -8 -3 -8 -8 2 -18 13 -14 19 -32 22 -72
1 -10 5 -18 10 -18 5 0 7 -7 3 -15 -3 -8 -1 -15 5 -15 6 0 7 -4 4 -10 -3 -5
-1 -10 4 -10 6 0 10 -3 10 -7 -3 -18 14 -73 23 -73 5 0 6 -5 3 -10 -3 -5 -1
-10 4 -10 6 0 11 -9 11 -20 0 -11 5 -20 11 -20 6 0 9 -6 6 -14 -3 -8 3 -24 13
-36 11 -13 17 -27 14 -31 -3 -5 0 -9 5 -9 6 0 11 -9 11 -20 0 -11 7 -23 15
-26 8 -4 12 -10 9 -15 -3 -5 0 -9 5 -9 6 0 11 -5 11 -11 0 -6 7 -17 15 -26 8
-8 13 -19 10 -23 -3 -5 3 -15 15 -22 11 -7 20 -18 20 -24 0 -6 9 -19 20 -29
11 -10 20 -24 20 -32 0 -8 5 -11 10 -8 6 3 10 -3 10 -15 0 -12 4 -18 10 -15 5
3 10 2 10 -4 0 -9 30 -45 118 -139 23 -25 42 -50 42 -55 0 -5 5 -7 11 -5 7 2
29 -13 50 -34 21 -21 41 -38 44 -38 2 0 18 -13 33 -30 16 -16 31 -28 34 -25 3
3 18 -7 34 -22 16 -15 32 -26 37 -25 4 1 7 -2 7 -8 0 -6 3 -9 8 -9 20 3 32 -2
26 -13 -5 -8 0 -9 14 -6 12 4 20 3 17 -2 -6 -10 20 -32 28 -23 4 3 7 1 7 -6 0
-7 4 -10 9 -7 5 3 14 -1 21 -9 7 -8 19 -15 26 -15 8 0 14 -3 14 -7 0 -5 11
-13 25 -20 19 -8 23 -8 18 0 -7 13 28 -12 38 -26 3 -5 9 -8 13 -8 25 4 36 0
30 -11 -5 -8 0 -9 14 -6 12 4 22 2 22 -4 0 -5 4 -6 10 -3 6 3 10 1 10 -6 0 -7
3 -9 7 -6 3 4 15 0 25 -10 14 -13 18 -13 18 -2 0 8 3 10 8 4 7 -10 27 -17 50
-18 6 0 12 -4 12 -9 0 -4 8 -8 18 -8 10 0 24 -6 31 -13 11 -9 12 -9 7 0 -5 9
-2 11 8 7 9 -3 16 -10 16 -15 0 -5 5 -9 11 -9 5 0 7 6 3 13 -4 6 3 3 16 -8 13
-11 20 -14 15 -6 -6 11 -4 13 11 7 39 -16 73 -24 78 -18 3 3 6 1 6 -5 0 -5 7
-10 15 -10 8 0 15 4 15 9 0 5 11 1 25 -8 18 -12 25 -13 25 -4 0 10 3 10 15 0
9 -7 18 -10 22 -7 3 4 14 2 24 -4 11 -6 19 -6 19 0 0 12 33 9 42 -4 5 -6 8 -4
8 5 0 11 2 12 8 2 10 -16 91 -23 115 -10 12 6 23 6 33 -3 10 -8 14 -8 14 0 0
9 5 9 20 1 15 -8 20 -8 20 1 0 7 3 9 7 6 3 -4 12 -2 20 4 9 9 13 8 13 0 0 -9
5 -9 20 -1 15 8 20 8 20 -1 0 -8 5 -7 17 2 11 10 14 10 9 2 -4 -7 -2 -13 3
-13 6 0 11 5 11 11 0 5 4 8 9 4 5 -3 12 -1 16 4 4 7 15 7 30 1 17 -7 25 -6 25
1 0 6 7 9 15 5 8 -3 15 0 15 6 0 7 5 6 15 -2 12 -10 15 -10 15 0 0 7 8 10 20
7 11 -3 20 -1 20 5 0 5 4 7 9 3 5 -3 13 0 17 6 4 8 9 7 15 -2 6 -10 9 -11 9
-1 0 6 9 12 19 12 11 0 23 5 27 11 4 8 9 7 15 -2 7 -11 9 -11 9 -1 0 7 5 10
10 7 6 -3 10 -2 10 3 0 5 6 9 13 10 45 6 57 10 73 23 14 11 16 11 10 0 -6 -8
0 -7 18 4 14 10 26 14 26 10 0 -4 6 -2 13 4 8 6 17 8 20 4 4 -3 7 -1 7 6 0 7
5 9 10 6 6 -3 10 -1 10 5 0 6 4 9 9 6 5 -4 11 -2 13 4 1 5 12 11 23 13 34 7
55 19 49 28 -3 5 8 9 23 9 16 0 35 6 42 13 6 6 16 12 21 12 4 0 17 9 27 20 10
12 25 20 33 20 8 0 25 10 38 22 13 13 27 23 32 23 20 0 25 3 38 22 7 10 18 16
23 12 5 -3 8 -2 7 3 -2 4 0 9 5 10 13 4 78 63 181 165 55 54 103 98 108 98 5
0 7 4 3 9 -3 5 4 16 15 24 11 7 17 17 13 20 -3 4 -1 7 6 7 7 0 9 5 6 10 -3 6
2 10 11 10 10 0 15 3 11 6 -3 4 4 15 16 25 12 10 18 18 13 19 -4 0 2 9 15 21
13 11 17 17 9 13 -8 -4 -1 8 17 27 18 19 33 39 34 44 4 23 12 35 20 29 5 -3 6
2 3 10 -3 9 -1 16 5 16 6 0 8 7 4 17 -4 11 -3 14 5 9 11 -6 17 5 13 27 0 4 3
7 9 7 5 0 10 9 10 20 0 11 5 20 11 20 5 0 7 5 4 10 -3 6 -1 10 5 10 6 0 8 5 5
10 -3 6 -1 10 5 10 6 0 8 5 5 10 -3 5 -1 10 6 10 7 0 10 3 7 6 -4 3 0 17 7 31
8 15 12 30 9 35 -3 4 0 8 6 8 6 0 8 5 5 10 -3 6 -1 10 5 10 6 0 8 5 5 10 -3 6
-1 10 5 10 6 0 9 4 5 9 -3 5 0 13 6 16 5 4 8 13 5 21 -3 8 -1 14 4 14 6 0 9 3
9 8 -1 4 0 9 1 12 3 9 10 44 12 63 1 9 5 17 9 17 4 0 9 9 12 20 3 13 1 18 -6
13 -7 -4 -4 6 7 21 10 16 13 25 7 22 -7 -5 -9 -1 -5 8 3 9 10 16 15 16 5 0 4
11 -1 25 -6 15 -6 26 1 30 5 4 7 11 4 16 -4 5 -2 9 2 9 9 0 11 8 14 85 1 28 7
53 13 57 7 5 6 8 -3 8 -11 0 -11 3 0 17 12 15 12 16 -1 8 -13 -8 -13 -7 -1 8
10 13 10 17 1 17 -9 0 -10 3 -1 13 6 8 8 17 4 20 -3 4 -2 7 3 7 11 0 10 88 -1
98 -5 4 -5 1 0 -7 6 -10 4 -12 -4 -7 -9 6 -9 11 0 22 9 11 9 14 -1 14 -10 0
-10 3 0 15 8 10 9 15 1 15 -7 0 -8 8 -1 25 7 18 6 25 -3 25 -9 0 -8 3 1 9 11
7 10 11 -2 24 -9 9 -12 18 -7 22 8 4 8 53 0 63 -1 1 -2 6 -3 11 0 5 -4 13 -8
16 -4 4 -3 16 2 26 6 10 6 19 1 21 -5 2 -10 19 -12 38 -2 19 -7 41 -12 47 -5
7 -7 22 -4 34 3 11 0 22 -7 25 -6 2 -13 21 -14 42 -2 20 -7 39 -12 40 -11 4
-13 32 -4 56 3 9 10 13 15 10 5 -3 9 1 9 8 0 9 3 9 10 -2 8 -12 11 -13 19 -1
6 10 10 10 16 1 6 -9 10 -9 16 1 7 12 9 12 9 0 0 -11 3 -11 15 -1 12 10 15 10
15 0 0 -10 3 -10 14 -1 11 9 15 9 19 -1 4 -10 6 -10 6 1 1 11 4 11 16 1 12
-10 15 -10 15 1 0 11 2 11 10 -1 9 -13 10 -13 10 0 0 12 2 12 9 1 6 -9 11 -10
15 -2 4 6 12 9 17 6 5 -4 9 -1 9 6 0 8 4 8 15 -1 12 -10 15 -10 15 0 0 8 3 10
7 7 3 -4 12 -2 20 4 9 8 13 8 13 1 0 -8 13 -7 39 3 22 7 42 11 45 8 3 -4 6 -1
6 6 0 7 4 10 8 7 5 -3 20 1 35 9 20 10 27 11 27 2 0 -8 3 -8 8 -2 12 16 47 41
38 28 -4 -7 17 -1 46 13 29 14 61 28 71 31 9 3 17 10 17 15 0 5 5 6 10 3 6 -3
10 -1 10 5 0 6 4 9 9 5 5 -3 17 5 25 17 11 15 16 18 16 8 1 -11 6 -8 19 7 11
13 23 23 28 23 4 0 20 11 35 24 14 14 29 22 32 19 3 -4 6 0 6 7 0 7 2 11 5 8
7 -7 105 88 105 101 0 6 7 11 15 11 8 0 14 6 12 13 -1 6 3 11 10 10 6 -2 15 6
18 17 4 11 11 20 17 20 6 0 9 3 6 6 -3 3 7 19 23 37 16 17 29 37 29 44 0 6 8
18 18 25 9 7 18 20 20 28 2 8 8 17 13 18 5 2 7 8 3 13 -3 5 0 9 7 9 7 0 10 3
6 6 -3 4 1 13 9 21 8 8 12 19 9 24 -4 5 -1 9 5 9 6 0 9 4 6 9 -3 5 0 14 8 20
12 10 31 66 27 84 0 4 3 7 8 7 8 0 15 22 28 85 2 10 7 22 11 25 4 3 8 25 10
49 1 25 7 50 13 57 7 8 6 13 -3 17 -10 4 -11 7 0 18 14 15 18 334 4 343 -5 3
-8 15 -7 28 1 13 -3 29 -9 37 -8 11 -8 13 1 7 9 -5 11 -2 7 8 -3 9 -11 16 -18
16 -6 0 -4 5 4 10 8 5 10 10 4 10 -11 0 -12 6 -15 55 -1 14 -5 25 -9 25 -3 0
-7 6 -8 13 -2 23 -8 42 -17 57 -5 8 -10 17 -10 20 -3 23 -19 50 -28 50 -7 0
-6 4 3 10 10 6 11 10 3 10 -7 0 -13 7 -13 15 0 8 -4 15 -10 15 -5 0 -7 6 -4
14 3 7 -6 22 -19 32 -13 11 -22 25 -19 32 2 6 -2 12 -8 12 -6 0 -10 5 -8 12 3
7 -8 23 -24 36 -15 13 -28 30 -28 38 0 7 -19 34 -43 59 -24 25 -41 45 -39 45
3 0 -10 15 -29 32 -19 18 -33 36 -32 40 2 5 -6 8 -17 8 -11 0 -20 7 -20 15 0
8 -4 15 -10 15 -9 0 -22 9 -64 45 -17 15 -47 33 -76 47 -14 7 -27 15 -30 18
-11 12 -111 61 -132 65 -12 3 -25 10 -30 17 -4 7 -8 9 -8 5 0 -4 -9 -3 -21 3
-22 13 -55 21 -81 23 -10 1 -18 5 -18 10 0 5 -6 7 -13 4 -7 -3 -21 1 -32 9
-11 8 -21 10 -25 4 -3 -6 -16 -4 -32 4 -17 9 -30 10 -36 4 -6 -6 -12 -6 -16 1
-4 5 -14 7 -23 4 -10 -4 -14 -2 -10 4 7 11 -34 10 -52 -1 -5 -3 -12 0 -14 6
-4 10 -6 9 -6 -1 -1 -11 -4 -11 -16 -1 -12 10 -15 10 -15 0 0 -10 -3 -10 -15
0 -11 9 -15 9 -15 1 0 -7 -5 -9 -12 -5 -17 11 -48 12 -42 2 3 -4 0 -8 -5 -8
-6 0 -11 5 -11 11 0 8 -4 9 -13 0 -8 -6 -16 -8 -20 -5 -11 12 -57 11 -67 -1
-6 -7 -20 -11 -30 -8 -11 3 -26 0 -34 -6 -11 -9 -15 -9 -18 0 -3 9 -9 9 -23 1
-27 -14 -56 -25 -77 -27 -10 -2 -20 -4 -23 -5 -3 -1 -8 -3 -12 -4 -5 -1 -13
-5 -20 -9 -6 -4 -14 -3 -18 3 -4 6 -11 8 -16 5 -5 -4 -9 -1 -9 5 0 6 -4 8 -10
5 -5 -3 -10 -1 -10 5 0 6 -4 8 -10 5 -5 -3 -10 0 -10 7 0 10 -2 10 -9 -1 -7
-11 -9 -11 -14 0 -4 11 -6 11 -6 1 -1 -9 -6 -10 -20 -3 -10 6 -21 7 -25 4 -3
-4 -5 6 -4 21 2 17 8 26 18 24 8 -1 25 3 38 10 12 7 22 10 22 7 0 -4 15 8 34
27 19 18 32 36 30 40 -2 4 0 9 6 13 6 4 7 12 0 24 -6 12 -5 22 2 29 9 9 9 12
-1 12 -11 0 -11 3 0 17 8 9 9 14 3 10 -7 -4 -15 0 -18 9 -3 8 -2 12 4 9 6 -3
7 1 4 9 -3 9 -10 16 -15 16 -5 0 -9 7 -9 16 0 8 -4 12 -10 9 -5 -3 -10 -1 -10
4 0 6 -7 11 -15 11 -8 0 -15 5 -15 12 0 6 -3 9 -6 6 -3 -4 -19 -2 -35 2 -16 5
-29 5 -29 1 0 -3 -9 -7 -19 -7 -11 0 -18 3 -15 7 2 4 -3 9 -11 13 -12 4 -14
25 -12 116 2 65 -1 114 -7 120 -7 7 -6 10 3 10 10 0 11 3 2 13 -6 8 -8 17 -4
20 3 4 0 7 -7 7 -11 0 -11 3 -2 12 7 7 8 17 1 30 -7 12 -6 18 1 18 7 0 8 6 1
18 -14 27 -22 74 -10 67 14 -9 11 8 -7 33 -10 15 -11 22 -3 22 8 0 8 4 -1 15
-7 8 -10 21 -7 29 3 7 0 19 -6 25 -8 8 -8 11 2 11 10 0 11 3 2 13 -6 8 -8 17
-4 20 3 4 1 7 -5 7 -7 0 -10 14 -8 36 1 20 -2 41 -8 48 -6 6 -13 22 -15 36 -4
32 -9 54 -11 58 -2 1 -3 5 -4 10 -1 4 -5 13 -10 21 -7 10 -6 12 3 6 10 -6 11
-3 2 13 -6 12 -16 24 -21 27 -6 4 -8 15 -5 26 4 11 2 19 -4 19 -6 0 -10 3 -9
8 1 4 -4 23 -11 42 -8 19 -15 37 -15 40 -11 36 -19 50 -29 50 -7 0 -6 4 3 10
11 7 11 10 2 10 -7 0 -11 4 -8 9 3 5 -1 14 -9 21 -8 7 -12 16 -9 21 3 5 0 9
-6 9 -6 0 -8 5 -5 10 3 6 1 10 -5 10 -6 0 -8 5 -5 10 3 6 1 10 -5 10 -6 0 -8
5 -5 10 3 6 2 10 -3 10 -9 0 -25 37 -23 53 1 4 -4 7 -10 7 -6 0 -9 6 -6 13 3
8 -3 20 -13 27 -11 8 -17 17 -15 20 2 4 -5 17 -16 28 -11 12 -16 22 -12 22 4
0 4 4 -2 8 -15 10 -55 70 -55 80 0 5 -10 17 -22 26 -13 9 -16 14 -8 10 8 -4 4
6 -10 22 -14 16 -28 30 -32 32 -5 2 -8 10 -8 18 0 8 -4 14 -10 14 -5 0 -10 7
-10 16 0 8 -4 12 -10 9 -5 -3 -10 -1 -10 5 0 6 -11 22 -25 35 -13 14 -21 25
-18 25 3 0 -8 14 -26 30 -17 17 -31 34 -31 39 0 5 -9 13 -20 16 -11 3 -20 13
-20 21 0 8 -4 12 -10 9 -5 -3 -10 2 -10 11 0 10 -2 15 -5 12 -3 -3 -25 14 -49
36 -82 77 -104 96 -115 96 -6 0 -11 7 -11 16 0 8 -4 12 -10 9 -5 -3 -10 -1
-10 5 0 6 -4 8 -10 5 -5 -3 -10 1 -10 10 0 9 -5 13 -10 10 -6 -3 -13 1 -16 9
-3 9 -10 13 -15 10 -5 -3 -9 0 -9 5 0 6 -7 11 -15 11 -8 0 -15 7 -15 16 0 8
-4 13 -9 9 -5 -3 -17 2 -25 11 -9 8 -16 12 -16 9 0 -4 -9 3 -21 16 -11 13 -18
17 -14 9 4 -10 2 -9 -8 3 -8 9 -21 17 -30 17 -8 0 -18 7 -21 16 -4 10 -14 14
-26 11 -11 -3 -18 -2 -16 1 2 4 -12 17 -31 29 -19 13 -31 17 -27 10 9 -13 -26
12 -38 28 -4 6 -8 7 -8 3 0 -4 -34 10 -75 31 -41 21 -72 35 -69 30 3 -5 -2 -6
-10 -3 -9 3 -16 10 -16 16 0 5 -4 6 -10 3 -5 -3 -10 -1 -10 5 0 7 -7 10 -15 6
-8 -3 -15 -1 -15 5 0 6 -4 7 -10 4 -5 -3 -22 2 -37 12 -15 10 -24 12 -20 6 6
-9 3 -11 -7 -7 -9 3 -13 10 -10 15 3 5 -2 6 -10 3 -9 -3 -16 -2 -16 2 0 5 -10
10 -23 11 -50 5 -62 9 -69 19 -4 6 -19 9 -33 6 -15 -2 -25 0 -25 7 0 8 -6 9
-18 2 -12 -7 -24 -4 -41 10 -18 15 -27 16 -43 8 -13 -7 -18 -7 -14 -1 4 6 -2
11 -11 10 -27 0 -81 10 -93 17 -5 3 -10 1 -10 -6 0 -8 -4 -8 -12 -2 -19 15
-68 22 -68 10 0 -6 -9 -2 -19 7 -13 12 -21 14 -26 6 -5 -8 -11 -8 -21 1 -10 8
-14 8 -14 0 0 -6 -5 -11 -11 -11 -5 0 -7 6 -3 13 5 8 2 8 -9 -2 -14 -11 -17
-11 -17 0 0 11 -2 11 -10 -1 -7 -11 -10 -11 -10 -2 0 7 -4 10 -10 7 -5 -3 -10
-3 -10 2 0 4 -45 8 -100 8 -76 0 -100 -3 -100 -13z"/>
<path d="M5996 6192 c-4 -7 -12 -9 -18 -6 -6 4 -8 2 -4 -4 3 -5 1 -12 -6 -14
-6 -2 -12 -23 -13 -46 -1 -23 1 -39 3 -37 3 3 13 -5 23 -17 13 -14 19 -16 19
-7 0 8 3 10 8 4 4 -5 14 -10 22 -10 20 0 63 43 55 55 -3 6 -1 10 6 10 7 0 5 8
-7 22 -12 14 -14 19 -4 13 8 -4 5 2 -8 14 -12 12 -27 19 -32 16 -6 -3 -10 0
-10 7 0 10 -2 10 -9 -1 -7 -11 -9 -11 -13 0 -3 10 -6 10 -12 1z"/>
<path d="M5780 5852 c0 -7 -4 -10 -10 -7 -5 3 -10 1 -10 -5 0 -6 -5 -8 -10 -5
-6 3 -13 -1 -16 -9 -3 -9 -10 -14 -14 -11 -8 5 -25 -24 -22 -37 1 -5 -3 -8 -9
-8 -5 0 -8 -4 -4 -9 3 -5 1 -12 -5 -16 -13 -8 -13 -75 0 -75 6 0 10 -6 9 -12
-3 -26 1 -39 11 -33 6 3 10 -1 10 -9 0 -8 9 -18 20 -21 11 -3 20 -11 20 -16 0
-6 4 -8 9 -5 5 4 12 0 14 -6 4 -10 6 -10 6 0 1 9 6 10 20 2 14 -7 21 -6 24 3
4 9 6 9 6 -1 1 -7 5 -11 10 -8 4 3 8 -7 7 -22 -1 -15 -6 -26 -13 -25 -9 2 -10
-4 -3 -22 5 -14 6 -25 1 -25 -5 0 -7 -9 -4 -20 3 -11 9 -17 14 -14 5 3 9 -2 9
-12 0 -13 7 -15 34 -12 19 2 32 0 30 -4 -9 -13 5 -9 25 9 11 9 18 20 15 25 -3
4 0 8 5 8 12 0 15 48 5 74 -3 9 -10 13 -15 10 -5 -3 -9 -1 -9 4 0 5 -10 12
-22 16 -19 5 -21 8 -8 16 8 5 11 10 6 10 -5 0 1 11 14 25 13 14 20 25 15 25
-4 0 0 10 11 22 13 14 14 19 4 14 -8 -4 -7 -1 3 7 14 11 15 16 5 20 -10 4 -10
6 0 6 9 1 10 6 4 19 -5 9 -8 25 -7 35 2 9 -1 17 -5 17 -5 0 -12 9 -15 21 -4
11 -22 27 -41 36 -19 9 -34 20 -34 25 0 4 -5 8 -11 8 -5 0 -7 -5 -3 -11 4 -8
0 -8 -15 0 -16 9 -21 9 -21 -1 0 -9 -3 -9 -10 2 -9 13 -10 13 -10 0 0 -13 -1
-13 -10 0 -7 11 -10 11 -10 2z"/>
<path d="M6162 5655 c-7 -8 -11 -17 -10 -19 2 -3 -6 -12 -17 -21 -11 -9 -14
-13 -6 -9 10 5 13 2 9 -12 -5 -22 37 -71 45 -51 4 9 6 9 6 -1 1 -10 6 -10 21
-2 15 8 20 8 20 -2 0 -6 9 -2 20 10 26 28 28 96 3 108 -32 14 -78 13 -91 -1z"/>
<path d="M1890 3390 c0 -5 -10 -6 -22 -2 -14 3 -19 2 -14 -6 4 -7 3 -12 -2
-12 -15 0 -21 -37 -9 -49 8 -8 8 -11 -1 -11 -9 0 -8 -7 4 -24 9 -15 21 -22 30
-19 8 3 14 1 14 -4 0 -5 7 -10 15 -10 8 0 15 4 15 9 0 4 9 8 21 8 11 0 18 4
14 9 -3 5 1 15 8 23 15 16 6 74 -11 71 -7 -2 -12 1 -12 6 0 5 -11 11 -25 13
-14 3 -25 2 -25 -2z"/>
<path d="M2210 3378 c-19 -10 -32 -18 -27 -18 4 0 -2 -9 -13 -20 -12 -12 -18
-25 -15 -30 4 -6 1 -10 -6 -10 -7 0 -9 -3 -6 -6 3 -4 2 -15 -4 -25 -6 -13 -6
-19 1 -19 5 0 10 -5 10 -11 0 -5 -5 -7 -10 -4 -11 7 -9 -17 2 -25 3 -3 8 -12
10 -20 4 -20 22 -39 30 -33 4 2 5 -3 2 -11 -4 -11 0 -16 10 -16 9 0 16 -4 16
-8 0 -4 12 -9 27 -10 15 -1 30 -8 35 -15 6 -9 8 -8 8 3 0 12 2 12 9 2 7 -11
11 -11 22 1 8 7 20 12 28 9 8 -3 20 3 28 14 7 10 13 14 13 9 0 -12 28 27 28
39 0 5 5 12 10 15 12 7 19 87 10 97 -4 3 -4 12 -2 19 7 16 -59 78 -87 82 -61
9 -97 7 -129 -9z"/>
<path d="M2240 2943 c0 -7 -11 -13 -25 -13 -14 0 -25 -4 -25 -9 0 -5 -9 -13
-21 -16 -11 -4 -18 -9 -15 -13 3 -3 -1 -14 -11 -24 -9 -11 -11 -18 -5 -18 7 0
12 -5 12 -11 0 -5 -4 -8 -8 -5 -5 3 -9 -1 -9 -9 0 -8 3 -15 6 -15 3 0 7 -12 8
-26 0 -15 13 -38 28 -53 15 -14 25 -19 21 -11 -4 8 1 6 11 -5 20 -22 43 -30
43 -16 0 5 9 7 20 4 11 -3 26 2 35 11 9 9 21 13 27 10 7 -4 8 -2 4 4 -4 7 -1
12 9 12 9 0 13 5 10 10 -3 6 -2 10 2 10 5 0 10 17 11 37 2 21 5 39 7 42 3 2
-3 10 -13 18 -10 9 -11 11 -2 7 13 -7 13 -6 0 11 -29 37 -50 59 -50 51 0 -5
-7 -3 -15 4 -8 6 -19 9 -26 5 -6 -4 -15 -1 -20 6 -6 10 -9 11 -9 2z"/>
</g>
</svg>
